<?xml version="1.0" encoding="UTF-8"?>
<svg xmlns="http://www.w3.org/2000/svg" xmlns:xlink="http://www.w3.org/1999/xlink" width="854pt" height="480pt" viewBox="0 0 854 480" version="1.1">
<defs>
<g>
<symbol overflow="visible" id="glyph0-0">
<path style="stroke:none;" d="M 0.3125 1.078125 L 0.3125 -4.28125 L 3.34375 -4.28125 L 3.34375 1.078125 Z M 0.640625 0.734375 L 3 0.734375 L 3 -3.9375 L 0.640625 -3.9375 Z "/>
</symbol>
<symbol overflow="visible" id="glyph0-1">
<path style="stroke:none;" d="M 1.4375 -2.21875 C 1.4375 -2.332031 1.472656 -2.425781 1.546875 -2.5 C 1.617188 -2.582031 1.707031 -2.625 1.8125 -2.625 C 1.925781 -2.625 2.019531 -2.582031 2.09375 -2.5 C 2.175781 -2.425781 2.21875 -2.332031 2.21875 -2.21875 C 2.21875 -2.101562 2.175781 -2.007812 2.09375 -1.9375 C 2.019531 -1.863281 1.925781 -1.828125 1.8125 -1.828125 C 1.707031 -1.828125 1.617188 -1.863281 1.546875 -1.9375 C 1.472656 -2.007812 1.4375 -2.101562 1.4375 -2.21875 Z M 1.828125 -4.03125 C 1.546875 -4.03125 1.335938 -3.878906 1.203125 -3.578125 C 1.066406 -3.273438 1 -2.816406 1 -2.203125 C 1 -1.585938 1.066406 -1.128906 1.203125 -0.828125 C 1.335938 -0.535156 1.546875 -0.390625 1.828125 -0.390625 C 2.109375 -0.390625 2.316406 -0.535156 2.453125 -0.828125 C 2.585938 -1.128906 2.65625 -1.585938 2.65625 -2.203125 C 2.65625 -2.816406 2.585938 -3.273438 2.453125 -3.578125 C 2.316406 -3.878906 2.109375 -4.03125 1.828125 -4.03125 Z M 1.828125 -4.5 C 2.296875 -4.5 2.648438 -4.304688 2.890625 -3.921875 C 3.128906 -3.535156 3.25 -2.960938 3.25 -2.203125 C 3.25 -1.453125 3.128906 -0.882812 2.890625 -0.5 C 2.648438 -0.113281 2.296875 0.078125 1.828125 0.078125 C 1.347656 0.078125 0.988281 -0.113281 0.75 -0.5 C 0.507812 -0.882812 0.390625 -1.453125 0.390625 -2.203125 C 0.390625 -2.960938 0.507812 -3.535156 0.75 -3.921875 C 0.988281 -4.304688 1.347656 -4.5 1.828125 -4.5 Z "/>
</symbol>
<symbol overflow="visible" id="glyph0-2">
<path style="stroke:none;" d="M 0.796875 -0.5 L 1.734375 -0.5 L 1.734375 -3.875 L 0.734375 -3.65625 L 0.734375 -4.203125 L 1.71875 -4.421875 L 2.328125 -4.421875 L 2.328125 -0.5 L 3.234375 -0.5 L 3.234375 0 L 0.796875 0 Z "/>
</symbol>
<symbol overflow="visible" id="glyph0-3">
<path style="stroke:none;" d="M 0.6875 -4.421875 L 3.296875 -4.421875 L 3.296875 -3.921875 L 1.296875 -3.921875 L 1.296875 -2.609375 L 3.109375 -2.609375 L 3.109375 -2.109375 L 1.296875 -2.109375 L 1.296875 0 L 0.6875 0 Z "/>
</symbol>
<symbol overflow="visible" id="glyph0-4">
<path style="stroke:none;" d="M 2.296875 -2.359375 C 2.585938 -2.285156 2.804688 -2.148438 2.953125 -1.953125 C 3.109375 -1.753906 3.1875 -1.507812 3.1875 -1.21875 C 3.1875 -0.8125 3.050781 -0.492188 2.78125 -0.265625 C 2.507812 -0.0351562 2.132812 0.078125 1.65625 0.078125 C 1.445312 0.078125 1.234375 0.0546875 1.015625 0.015625 C 0.804688 -0.015625 0.601562 -0.0664062 0.40625 -0.140625 L 0.40625 -0.734375 C 0.601562 -0.628906 0.800781 -0.550781 1 -0.5 C 1.195312 -0.445312 1.390625 -0.421875 1.578125 -0.421875 C 1.910156 -0.421875 2.164062 -0.492188 2.34375 -0.640625 C 2.519531 -0.785156 2.609375 -1 2.609375 -1.28125 C 2.609375 -1.53125 2.519531 -1.726562 2.34375 -1.875 C 2.164062 -2.03125 1.925781 -2.109375 1.625 -2.109375 L 1.171875 -2.109375 L 1.171875 -2.609375 L 1.625 -2.609375 C 1.894531 -2.609375 2.109375 -2.664062 2.265625 -2.78125 C 2.421875 -2.90625 2.5 -3.078125 2.5 -3.296875 C 2.5 -3.515625 2.425781 -3.6875 2.28125 -3.8125 C 2.132812 -3.9375 1.929688 -4 1.671875 -4 C 1.492188 -4 1.3125 -3.976562 1.125 -3.9375 C 0.9375 -3.894531 0.738281 -3.835938 0.53125 -3.765625 L 0.53125 -4.3125 C 0.769531 -4.375 0.984375 -4.421875 1.171875 -4.453125 C 1.359375 -4.484375 1.523438 -4.5 1.671875 -4.5 C 2.097656 -4.5 2.441406 -4.390625 2.703125 -4.171875 C 2.960938 -3.953125 3.09375 -3.664062 3.09375 -3.3125 C 3.09375 -3.070312 3.023438 -2.867188 2.890625 -2.703125 C 2.753906 -2.546875 2.554688 -2.429688 2.296875 -2.359375 Z "/>
</symbol>
</g>
</defs>
<g id="surface6">
<path style="fill:none;stroke-width:0.360941;stroke-linecap:butt;stroke-linejoin:miter;stroke:rgb(100%,100%,100%);stroke-opacity:1;stroke-miterlimit:2;" d="M 30.179688 20.542969 L 42.273438 20.542969 L 42.273438 31.15625 L 30.179688 31.15625 Z "/>
<g style="fill:rgb(100%,100%,100%);fill-opacity:1;">
  <use xlink:href="#glyph0-1" x="30.722656" y="25.667969"/>
</g>
<g style="fill:rgb(100%,100%,100%);fill-opacity:1;">
  <use xlink:href="#glyph0-2" x="34.511719" y="25.667969"/>
</g>
<g style="fill:rgb(100%,100%,100%);fill-opacity:1;">
  <use xlink:href="#glyph0-3" x="38.304688" y="25.667969"/>
</g>
<g style="fill:rgb(100%,100%,100%);fill-opacity:1;">
  <use xlink:href="#glyph0-4" x="30.722656" y="30.609375"/>
</g>
<g style="fill:rgb(100%,100%,100%);fill-opacity:1;">
  <use xlink:href="#glyph0-4" x="34.511719" y="30.609375"/>
</g>
<g style="fill:rgb(100%,100%,100%);fill-opacity:1;">
  <use xlink:href="#glyph0-3" x="38.304688" y="30.609375"/>
</g>
</g>
</svg>
